<svg xmlns="http://www.w3.org/2000/svg" xmlns:xlink="http://www.w3.org/1999/xlink" viewBox="0 0 164.58 33.5"><defs><style>.cls-1{fill:#d8d8d8;}.cls-2{fill:url(#linear-gradient);}.cls-3{fill:url(#linear-gradient-2);}.cls-4{fill:#016699;}</style><linearGradient id="linear-gradient" x1="-0.11" y1="20.05" x2="53.67" y2="16.83" gradientUnits="userSpaceOnUse"><stop offset="0" stop-color="#51499e"/><stop offset="1" stop-color="#016699"/></linearGradient><linearGradient id="linear-gradient-2" x1="-0.24" y1="17.89" x2="53.54" y2="14.67" xlink:href="#linear-gradient"/></defs><title>Asset 51</title><g id="Layer_2" data-name="Layer 2"><g id="Layer_2-2" data-name="Layer 2"><path class="cls-1" d="M37.61,16.09c3.36,18-19.1,21.85-25,10.66C19.13,33,36.56,31.05,37.61,16.09Z"/><path class="cls-1" d="M18.22,6.58c14.89.11,17.19,23.83-2.63,20.87,8.25,3.53,16.3-1.62,18.77-7.54C37,13.49,31,3,18.22,6.58Z"/><path class="cls-1" d="M24.45,11.52c5.64,4.85,3.38,14.84-5.78,14.84C24.31,24.9,26,15.73,24.45,11.52Z"/><path class="cls-2" d="M18.2,10.44a11.83,11.83,0,1,1,1.69,21.87,15,15,0,1,0-7.59-7.15l.3.58A11.83,11.83,0,0,1,18.2,10.44Z"/><path class="cls-3" d="M30,11.46c-.09-.2-.2-.39-.3-.58A11.83,11.83,0,0,1,8.28,20.83a11.55,11.55,0,0,1,3.5-14.48A13,13,0,0,1,21.49,4C18.47-.52,13.05.8,11,1.36c-.94.23-8,3-11,1.33a7.37,7.37,0,0,0,6.81,4,0,0,0,0,1,0,0h0A15,15,0,0,0,1.73,20.1a5,5,0,0,0,.16,1h0A15,15,0,1,0,30,11.46Z"/><path class="cls-4" d="M55.8,33.3H54.22V25.68H55.8v3.1l2.89-3.1h2L57.64,28.8l3.27,4.5h-2L56.54,30l-.74.76Z"/><path class="cls-4" d="M81.4,30.53c0,2-1.2,2.87-3.11,2.87a3.22,3.22,0,0,1-2.4-.92,2.81,2.81,0,0,1-.59-1.85V25.58h1.61v4.94c0,1.07.61,1.53,1.35,1.53,1.08,0,1.53-.53,1.53-1.45v-5H81.4Z"/><path class="cls-4" d="M97.37,33.3H95.78V25.68h1.59v3.1l2.88-3.1h2L99.21,28.8l3.26,4.5h-2L98.1,30l-.73.76Z"/><path class="cls-4" d="M121.52,25.68H123V33.3h-1.58l-3.08-5.43h0V33.3h-1.47V25.68h1.66l3,5.31h0Z"/><path class="cls-4" d="M140.69,25.48c1,0,3.64.43,3.64,4s-2.64,4-3.64,4-3.63-.43-3.63-4S139.69,25.48,140.69,25.48Zm0,6.67c.86,0,2.06-.53,2.06-2.66s-1.2-2.67-2.06-2.67-2.05.54-2.05,2.67S139.84,32.15,140.69,32.15Z"/><path class="cls-4" d="M159.88,31c0,.43.22,1.24,1.6,1.24.75,0,1.58-.18,1.58-1,0-.6-.56-.76-1.36-.95l-.82-.19c-1.22-.28-2.4-.56-2.4-2.24,0-.85.46-2.34,2.91-2.34s2.94,1.53,3,2.46h-1.52c0-.34-.17-1.15-1.55-1.15-.6,0-1.31.23-1.31.92s.48.72.8.79l1.84.46c1,.25,2,.68,2,2.05,0,2.29-2.32,2.49-3,2.49-2.76,0-3.23-1.6-3.23-2.55Z"/><path class="cls-4" d="M72.84,10a1.83,1.83,0,0,1-.57-1.27V5.43h-2V8.64a1.79,1.79,0,0,1-.53,1.29,1.82,1.82,0,0,1-1.31.53,1.71,1.71,0,0,1-1.28-.52,1.79,1.79,0,0,1-.51-1.3V5.43h-2v5.15a3.94,3.94,0,0,1-.34,1.63,4.54,4.54,0,0,1-.89,1.34,4,4,0,0,1-4.55.93,4.3,4.3,0,0,1-1.34-.91,4.21,4.21,0,0,1-.9-1.34,4.12,4.12,0,0,1-.33-1.65V7h-2v3.59A5.94,5.94,0,0,0,54.71,13a6.3,6.3,0,0,0,1.34,2,6.43,6.43,0,0,0,2,1.34,6.1,6.1,0,0,0,2.41.48,6,6,0,0,0,2-.34,6.61,6.61,0,0,0,1.77-1A6.19,6.19,0,0,0,65.6,14a5.88,5.88,0,0,0,.83-1.84l.06-.23.21.11a3.77,3.77,0,0,0,3.23.13,4.07,4.07,0,0,0,1.27-.82l.14-.13.13.14a3.35,3.35,0,0,0,1.19.81,3.69,3.69,0,0,0,1.45.3h3.33V4.78H75.38v5.68H74.11A1.77,1.77,0,0,1,72.84,10Z"/><path class="cls-4" d="M163.38,5.43a4.37,4.37,0,0,0-1.31-.88,4.22,4.22,0,0,0-3.22,0,4.11,4.11,0,0,0-1.31.89,4,4,0,0,0-1.21,2.92,4,4,0,0,0,.44,1.83l.14.27h-4l.14-.27a4.1,4.1,0,0,0,.41-1.83,4.14,4.14,0,0,0-.32-1.62,4.31,4.31,0,0,0-.88-1.31,4.5,4.5,0,0,0-1.31-.88,4.22,4.22,0,0,0-3.22,0,4.11,4.11,0,0,0-1.31.89,4,4,0,0,0-.89,1.3,4.14,4.14,0,0,0-.32,1.62,3.83,3.83,0,0,0,.44,1.83l.14.27H108.1a1.71,1.71,0,0,1-1.72-1.72V5.07h-2v3.6a1.77,1.77,0,0,1-.51,1.27,1.64,1.64,0,0,1-1.21.52H88V8.38a3.89,3.89,0,0,0-.32-1.61,4.21,4.21,0,0,0-.87-1.32,4,4,0,0,0-1.29-.9,4.11,4.11,0,0,0-3.21,0A4.19,4.19,0,0,0,81,5.47a4.26,4.26,0,0,0-.87,1.33,4.09,4.09,0,0,0,0,3.17A4.28,4.28,0,0,0,81,11.28a3.89,3.89,0,0,0,1.29.88,4.07,4.07,0,0,0,1.59.32H86v.19s0,.09,0,.17V13c0,.06,0,.13,0,.21a5.81,5.81,0,0,1-.28.84,2.52,2.52,0,0,1-.81,1,4.23,4.23,0,0,1-1.24.7l-1.38.51-.29.09a1.45,1.45,0,0,0-.25.1l-.3.1.54,1.71.27-.08a1.15,1.15,0,0,1,.28-.08,1.05,1.05,0,0,0,.21-.06l.9-.27c.32-.1.62-.2.94-.33s.6-.27.89-.43a4.16,4.16,0,0,0,.77-.52A5.3,5.3,0,0,0,88,12.66l0-.18h14.65a3.61,3.61,0,0,0,2.55-1l.13-.12.13.13a3,3,0,0,0,1.37.82,7,7,0,0,0,1.73.2h51.94a4.1,4.1,0,0,0,4.09-4.1,4.17,4.17,0,0,0-.32-1.64A4.31,4.31,0,0,0,163.38,5.43ZM86,10.46H83.87a2.05,2.05,0,0,1-1.48-.6,2,2,0,0,1-.62-1.48,2.09,2.09,0,0,1,.17-.83,2.42,2.42,0,0,1,.46-.67,2.19,2.19,0,0,1,.67-.45,1.84,1.84,0,0,1,.8-.18A2.15,2.15,0,0,1,86,8.38Zm63.3,0a1.87,1.87,0,0,1-2.08-2.1,2.08,2.08,0,1,1,4.16,0A1.87,1.87,0,0,1,149.3,10.46Zm11.16,0a1.87,1.87,0,0,1-2.08-2.1,2.08,2.08,0,1,1,4.16,0A1.87,1.87,0,0,1,160.46,10.46Z"/><rect class="cls-4" x="104.35" width="2.01" height="2.07"/><rect class="cls-4" x="146.55" width="2.01" height="2.07"/><rect class="cls-4" x="150.26" width="2.01" height="2.07"/><rect class="cls-4" x="157.59" width="2.01" height="2.07"/><rect class="cls-4" x="161.3" width="2.01" height="2.07"/></g></g></svg>