<svg xmlns="http://www.w3.org/2000/svg" xmlns:xlink="http://www.w3.org/1999/xlink" viewBox="0 0 108.78 133.79"><defs><style>.cls-1{fill:#d8d8d8;}.cls-2{fill:url(#linear-gradient);}.cls-3{fill:url(#linear-gradient-2);}.cls-4{fill:#016699;}</style><linearGradient id="linear-gradient" x1="-0.3" y1="51.57" x2="143.33" y2="42.98" gradientUnits="userSpaceOnUse"><stop offset="0" stop-color="#51499e"/><stop offset="1" stop-color="#016699"/></linearGradient><linearGradient id="linear-gradient-2" x1="-0.64" y1="45.8" x2="142.98" y2="37.22" xlink:href="#linear-gradient"/></defs><title>Asset 49</title><g id="Layer_2" data-name="Layer 2"><g id="Layer_2-2" data-name="Layer 2"><path class="cls-1" d="M100.43,41c9,48-51,58.35-66.68,28.48C51.08,86.25,97.63,81,100.43,41Z"/><path class="cls-1" d="M48.66,15.6c39.75.3,45.91,63.63-7,55.74,22,9.42,43.54-4.33,50.14-20.14C98.92,34.05,82.77,6.09,48.66,15.6Z"/><path class="cls-1" d="M65.3,28.8c15,13,9,39.62-15.44,39.62C64.92,64.51,69.54,40,65.3,28.8Z"/><path class="cls-2" d="M48.61,25.92a31.58,31.58,0,1,1,4.51,58.4,40,40,0,1,0-20.28-19.1c.26.52.54,1,.82,1.55A31.58,31.58,0,0,1,48.61,25.92Z"/><path class="cls-3" d="M80.2,28.63c-.26-.52-.53-1-.82-1.56A31.57,31.57,0,0,1,22.12,53.65,30.82,30.82,0,0,1,31.45,15c7.38-5.28,16.9-7.92,25.94-6.33-8.06-12-22.55-8.49-28.1-7C26.78,2.29,8,9.63,0,5.2,4.57,14.11,12.7,15.92,18.19,16a.16.16,0,0,1,0,.1.15.15,0,0,1,.06-.05l-.05,0h0A40.13,40.13,0,0,0,4.62,51.71a12.06,12.06,0,0,0,.44,2.61h0a39.58,39.58,0,0,0,3.38,9.86A40,40,0,1,0,80.2,28.63Z"/><path class="cls-4" d="M1.56,133.59H0v-7.51H1.56v3.06l2.84-3.06h2l-3,3.08,3.22,4.43h-2L2.28,130.3l-.72.75Z"/><path class="cls-4" d="M26.79,130.87c0,2-1.19,2.82-3.07,2.82a3.17,3.17,0,0,1-2.36-.91,2.78,2.78,0,0,1-.59-1.82v-5h1.59v4.88a1.31,1.31,0,0,0,1.33,1.5c1.07,0,1.51-.52,1.51-1.43v-5h1.59Z"/><path class="cls-4" d="M42.52,133.59H41v-7.51h1.55v3.06l2.85-3.06h2l-3,3.08,3.22,4.43h-2l-2.31-3.29-.73.75Z"/><path class="cls-4" d="M66.33,126.08h1.45v7.51H66.23l-3.05-5.35h0v5.35H61.71v-7.51h1.64l3,5.23h0Z"/><path class="cls-4" d="M85.23,125.88c1,0,3.58.43,3.58,4s-2.59,3.95-3.58,3.95-3.58-.43-3.58-3.95S84.24,125.88,85.23,125.88Zm0,6.58c.84,0,2-.52,2-2.62s-1.18-2.63-2-2.63-2,.52-2,2.63S84.39,132.46,85.23,132.46Z"/><path class="cls-4" d="M104.14,131.28c0,.42.22,1.21,1.58,1.21.74,0,1.56-.17,1.56-1,0-.58-.56-.74-1.35-.93l-.8-.19c-1.2-.28-2.37-.55-2.37-2.21,0-.83.45-2.31,2.87-2.31s2.9,1.51,2.91,2.43H107c0-.34-.17-1.13-1.52-1.13-.6,0-1.3.22-1.3.9s.47.71.79.78l1.81.45c1,.25,2,.67,2,2,0,2.26-2.29,2.46-2.94,2.46-2.72,0-3.19-1.58-3.19-2.51Z"/><path class="cls-4" d="M18.35,110.58a1.84,1.84,0,0,1-.56-1.25v-3.21h-2v3.17a1.75,1.75,0,0,1-.53,1.27,1.77,1.77,0,0,1-1.28.52,1.72,1.72,0,0,1-1.27-.51,1.79,1.79,0,0,1-.5-1.28v-3.17h-2v5.08a3.92,3.92,0,0,1-.33,1.6A4.5,4.5,0,0,1,9,114.13a4.15,4.15,0,0,1-1.3.92,4,4,0,0,1-3.18,0,4.51,4.51,0,0,1-1.32-.91,4.32,4.32,0,0,1-.89-1.32A4.14,4.14,0,0,1,2,111.2v-3.54H0v3.54a5.87,5.87,0,0,0,.48,2.37,6.28,6.28,0,0,0,1.32,2,6.11,6.11,0,0,0,2,1.32,5.87,5.87,0,0,0,2.37.48,5.8,5.8,0,0,0,2-.34,6.43,6.43,0,0,0,1.75-1,6,6,0,0,0,1.35-1.45,5.73,5.73,0,0,0,.81-1.82l.06-.23.21.12a3.73,3.73,0,0,0,3.18.13,4,4,0,0,0,1.25-.81l.14-.13L17,112a3.25,3.25,0,0,0,1.17.8,3.81,3.81,0,0,0,1.43.29h3.29v-7.59h-2v5.6H19.6A1.75,1.75,0,0,1,18.35,110.58Z"/><path class="cls-4" d="M107.59,106.13a4.06,4.06,0,0,0-4.46-.87,4,4,0,0,0-1.3.87,4.08,4.08,0,0,0-.87,1.29,4,4,0,0,0-.31,1.59,3.82,3.82,0,0,0,.42,1.8l.14.27h-4l.13-.27a4.24,4.24,0,0,0,.09-3.39,4.13,4.13,0,0,0-.87-1.29,4.06,4.06,0,0,0-4.46-.87,4,4,0,0,0-1.3.87,4.08,4.08,0,0,0-.87,1.29,4,4,0,0,0-.31,1.59,3.82,3.82,0,0,0,.42,1.8l.14.27H53.1a1.62,1.62,0,0,1-1.2-.5,1.66,1.66,0,0,1-.49-1.19v-3.62h-2v3.54a1.74,1.74,0,0,1-.51,1.26,1.6,1.6,0,0,1-1.19.51H33.27v-2a4,4,0,0,0-.32-1.59,4.27,4.27,0,0,0-.86-1.3,3.67,3.67,0,0,0-1.27-.88,4,4,0,0,0-4.43.9,4.28,4.28,0,0,0-.87,1.31,4.17,4.17,0,0,0-.31,1.56,4.11,4.11,0,0,0,.31,1.57,4.19,4.19,0,0,0,.87,1.29,4.09,4.09,0,0,0,1.27.87,3.89,3.89,0,0,0,1.57.31H31.3v.19a1,1,0,0,1,0,.16.71.71,0,0,0,0,.14v0c0,.06,0,.13,0,.21a8.09,8.09,0,0,1-.28.83,2.56,2.56,0,0,1-.81,1,4.13,4.13,0,0,1-1.21.69l-1.36.49-.29.1L27,117l-.29.1.53,1.69.27-.08a1.07,1.07,0,0,1,.27-.08,1.05,1.05,0,0,0,.21-.06l.89-.27c.31-.09.61-.2.92-.32a8.89,8.89,0,0,0,.88-.42,4.08,4.08,0,0,0,.76-.52,5.24,5.24,0,0,0,1.8-3.81v-.18H47.72a3.61,3.61,0,0,0,2.52-1l.13-.12.13.12a3,3,0,0,0,1.34.82,6.88,6.88,0,0,0,1.71.19h51.19a4,4,0,0,0,4-4,4,4,0,0,0-.32-1.61A4.13,4.13,0,0,0,107.59,106.13Zm-76.27,5H29.23a2.06,2.06,0,0,1-1.47-.59,2,2,0,0,1-.61-1.46,2,2,0,0,1,.17-.82,2.15,2.15,0,0,1,1.11-1.11,2,2,0,0,1,.8-.17,2.12,2.12,0,0,1,2.09,2.1Zm62.39,0A2.08,2.08,0,1,1,95.76,109,1.84,1.84,0,0,1,93.71,111.08Zm11,0a2.08,2.08,0,1,1,2.05-2.07A1.84,1.84,0,0,1,104.71,111.08Z"/><rect class="cls-4" x="49.41" y="100.77" width="1.99" height="2.04"/><rect class="cls-4" x="91" y="100.77" width="1.99" height="2.04"/><rect class="cls-4" x="94.66" y="100.77" width="1.98" height="2.04"/><rect class="cls-4" x="101.88" y="100.77" width="1.99" height="2.04"/><rect class="cls-4" x="105.54" y="100.77" width="1.98" height="2.04"/></g></g></svg>