<svg xmlns="http://www.w3.org/2000/svg" viewBox="0 0 95.02 76.43"><defs><style>.cls-1{opacity:0.4;}.cls-2{fill:#fff;}</style></defs><title>Asset 59</title><g id="Layer_2" data-name="Layer 2"><g id="Layer_2-2" data-name="Layer 2"><g class="cls-1"><path class="cls-2" d="M87.74,35.81c7.83,42-44.56,51-58.26,24.88C44.62,75.35,85.29,70.72,87.74,35.81Z"/><path class="cls-2" d="M42.51,13.63c34.72.26,40.11,55.59-6.15,48.69,19.25,8.23,38-3.78,43.8-17.6C86.42,29.74,72.31,5.32,42.51,13.63Z"/><path class="cls-2" d="M57.05,25.16c13.14,11.31,7.87,34.61-13.49,34.61C56.71,56.36,60.75,35,57.05,25.16Z"/></g><path class="cls-2" d="M42.47,22.64a27.59,27.59,0,1,1,3.93,51A35,35,0,1,0,28.69,57c.23.46.47.92.71,1.36A27.6,27.6,0,0,1,42.47,22.64Z"/><path class="cls-2" d="M70.06,25c-.23-.46-.46-.91-.71-1.36a27.59,27.59,0,0,1-50,23.22,27,27,0,0,1,8.15-33.78A30.55,30.55,0,0,1,50.13,7.56c-7-10.5-19.69-7.41-24.54-6.12C23.4,2,7,8.41,0,4.54,4,12.33,11.1,13.91,15.89,14a.11.11,0,0,1,0,.08l.06,0,0,0h0v0A35.07,35.07,0,0,0,4,45.18a11.08,11.08,0,0,0,.39,2.28h0A35,35,0,1,0,70.06,25Z"/></g></g></svg>