<svg xmlns="http://www.w3.org/2000/svg" xmlns:xlink="http://www.w3.org/1999/xlink" viewBox="0 0 110.36 88.77"><defs><style>.cls-1{fill:#a7a9ac;}.cls-2{fill:url(#linear-gradient);}.cls-3{fill:url(#linear-gradient-2);}</style><linearGradient id="linear-gradient" x1="-0.3" y1="52.32" x2="145.42" y2="43.61" gradientUnits="userSpaceOnUse"><stop offset="0" stop-color="#51499e"/><stop offset="1" stop-color="#016699"/></linearGradient><linearGradient id="linear-gradient-2" x1="-0.65" y1="46.47" x2="145.07" y2="37.76" xlink:href="#linear-gradient"/></defs><title>Asset 58</title><g id="Layer_2" data-name="Layer 2"><g id="Layer_2-2" data-name="Layer 2"><path class="cls-1" d="M101.9,41.59c9.09,48.72-51.76,59.2-67.66,28.89C51.82,87.51,99.06,82.14,101.9,41.59Z"/><path class="cls-1" d="M49.37,15.83c40.33.3,46.58,64.56-7.14,56.55C64.58,81.93,86.4,68,93.1,51.94,100.37,34.54,84,6.18,49.37,15.83Z"/><path class="cls-1" d="M66.25,29.22c15.27,13.13,9.15,40.2-15.66,40.2C65.86,65.45,70.55,40.63,66.25,29.22Z"/><path class="cls-2" d="M49.32,26.3a32,32,0,1,1,4.57,59.25A40.63,40.63,0,1,0,33.32,66.17c.26.53.54,1.06.83,1.58A32,32,0,0,1,49.32,26.3Z"/><path class="cls-3" d="M81.37,29.05c-.26-.54-.54-1.06-.83-1.58a32,32,0,0,1-58.1,27A31.28,31.28,0,0,1,31.91,15.2c7.48-5.35,17.15-8,26.32-6.41C50.05-3.41,35.35.17,29.72,1.67,27.17,2.32,8.15,9.77,0,5.28c4.64,9,12.89,10.88,18.46,10.93a.11.11,0,0,1,0,.09.18.18,0,0,1,.07-.05l-.05,0h0A40.74,40.74,0,0,0,4.68,52.47a13,13,0,0,0,.45,2.64h0A40.63,40.63,0,1,0,81.37,29.05Z"/></g></g></svg>