<svg xmlns="http://www.w3.org/2000/svg" viewBox="0 0 165.5 33.5"><defs><style>.cls-1{fill:#cccccb;}.cls-2{fill:#fff;}</style></defs><title>Asset 52</title><g id="Layer_2" data-name="Layer 2"><g id="Layer_2-2" data-name="Layer 2"><path class="cls-1" d="M38.46,15.7C41.89,34.08,18.92,38,12.92,26.6,19.56,33,37.38,31,38.46,15.7Z"/><path class="cls-1" d="M18.63,6c15.22.11,17.58,24.36-2.69,21.34,8.43,3.6,16.67-1.66,19.19-7.72C37.88,13,31.69,2.33,18.63,6Z"/><path class="cls-1" d="M25,11c5.76,5,3.46,15.17-5.91,15.17C24.86,24.7,26.63,15.33,25,11Z"/><path class="cls-2" d="M18.61,9.93a12.09,12.09,0,1,1,1.73,22.36A15.33,15.33,0,1,0,12.57,25c.1.2.21.4.32.6A12.09,12.09,0,0,1,18.61,9.93Z"/><path class="cls-2" d="M30.71,11l-.31-.59A12.09,12.09,0,0,1,8.47,20.54,11.79,11.79,0,0,1,12,5.74,13.38,13.38,0,0,1,22,3.32C18.89-1.29,13.34.07,11.22.63,10.26.88,3.08,3.69,0,2A7.54,7.54,0,0,0,7,6.12a0,0,0,0,1,0,0l0,0,0,0H7A15.35,15.35,0,0,0,1.77,19.8a4.54,4.54,0,0,0,.17,1h0A15.33,15.33,0,1,0,30.71,11Z"/><path class="cls-2" d="M56.72,33.3H55.14V25.68h1.58v3.1l2.88-3.1h2L58.56,28.8l3.27,4.5h-2L57.45,30l-.73.76Z"/><path class="cls-2" d="M82.31,30.53c0,2-1.2,2.87-3.1,2.87a3.25,3.25,0,0,1-2.41-.92,2.81,2.81,0,0,1-.59-1.85V25.58h1.62v4.94c0,1.07.61,1.53,1.34,1.53,1.09,0,1.53-.53,1.53-1.45v-5h1.61Z"/><path class="cls-2" d="M98.28,33.3H96.7V25.68h1.58v3.1l2.89-3.1h2l-3.09,3.12,3.27,4.5h-2L99,30l-.74.76Z"/><path class="cls-2" d="M122.43,25.68h1.48V33.3h-1.58l-3.09-5.43h0V33.3h-1.47V25.68h1.66l3,5.31h0Z"/><path class="cls-2" d="M141.61,25.48c1,0,3.63.43,3.63,4s-2.63,4-3.63,4-3.64-.43-3.64-4S140.61,25.48,141.61,25.48Zm0,6.67c.85,0,2-.53,2-2.66s-1.2-2.67-2-2.67-2.05.54-2.05,2.67S140.76,32.15,141.61,32.15Z"/><path class="cls-2" d="M160.8,31c0,.43.22,1.24,1.6,1.24.75,0,1.58-.18,1.58-1,0-.6-.57-.76-1.37-.95l-.81-.19c-1.22-.28-2.4-.56-2.4-2.24,0-.85.45-2.34,2.91-2.34,2.31,0,2.93,1.53,2.95,2.46h-1.52c0-.34-.17-1.15-1.55-1.15-.6,0-1.32.23-1.32.92s.49.72.8.79l1.85.46c1,.25,2,.68,2,2.05,0,2.29-2.32,2.49-3,2.49-2.76,0-3.24-1.6-3.24-2.55Z"/><path class="cls-2" d="M73.75,10a1.92,1.92,0,0,1-.57-1.27V5.43h-2V8.64a1.76,1.76,0,0,1-.54,1.29,1.78,1.78,0,0,1-1.3.53,1.73,1.73,0,0,1-1.29-.52,1.79,1.79,0,0,1-.51-1.3V5.43h-2v5.15a3.94,3.94,0,0,1-.34,1.63,4.78,4.78,0,0,1-.9,1.34,4,4,0,0,1-1.32.93,4,4,0,0,1-3.23,0,4.54,4.54,0,0,1-1.34-.91,4.39,4.39,0,0,1-.9-1.34,4.29,4.29,0,0,1-.32-1.65V7h-2v3.59A6.1,6.1,0,0,0,55.62,13,6.47,6.47,0,0,0,57,15a6.59,6.59,0,0,0,2,1.34,6.26,6.26,0,0,0,4.44.14,6.76,6.76,0,0,0,1.77-1A6.19,6.19,0,0,0,66.52,14a5.64,5.64,0,0,0,.82-1.84l.07-.23.21.11a3.74,3.74,0,0,0,3.22.13,3.86,3.86,0,0,0,1.27-.82l.14-.13.13.14a3.31,3.31,0,0,0,1.2.81,3.68,3.68,0,0,0,1.44.3h3.34V4.78H76.29v5.68H75A1.77,1.77,0,0,1,73.75,10Z"/><path class="cls-2" d="M164.3,5.43A4.5,4.5,0,0,0,163,4.55a4.23,4.23,0,0,0-3.22,0,4.09,4.09,0,0,0-2.52,3.81,4,4,0,0,0,.43,1.83l.14.27h-4l.14-.27a4.1,4.1,0,0,0,.41-1.83A4.14,4.14,0,0,0,154,6.74a4.19,4.19,0,0,0-2.19-2.19,4.23,4.23,0,0,0-3.22,0,4.09,4.09,0,0,0-2.52,3.81,4,4,0,0,0,.43,1.83l.14.27H109a1.64,1.64,0,0,1-1.23-.51,1.69,1.69,0,0,1-.5-1.21V5.07h-2v3.6a1.77,1.77,0,0,1-.51,1.27,1.62,1.62,0,0,1-1.21.52H88.89V8.38a4.06,4.06,0,0,0-.32-1.61,4.39,4.39,0,0,0-.87-1.32,4.16,4.16,0,0,0-1.29-.9,4,4,0,0,0-4.5.92A4.47,4.47,0,0,0,81,6.8,4.09,4.09,0,0,0,81,10a4.31,4.31,0,0,0,.88,1.31,3.89,3.89,0,0,0,1.29.88,4,4,0,0,0,1.59.32h2.1v.19a1.23,1.23,0,0,1,0,.17c0,.05,0,.1,0,.14v0c0,.06,0,.13,0,.21a6.08,6.08,0,0,1-.29.84,2.44,2.44,0,0,1-.81,1,4.1,4.1,0,0,1-1.24.7l-1.37.51-.29.09-.26.1-.29.1.53,1.71.28-.08a1.07,1.07,0,0,1,.27-.08,1.41,1.41,0,0,0,.22-.06l.9-.27c.31-.1.62-.2.93-.33a8.14,8.14,0,0,0,.89-.43,3.85,3.85,0,0,0,.77-.52,5.31,5.31,0,0,0,1.83-3.87v-.18h14.65a3.61,3.61,0,0,0,2.56-1l.13-.12.13.13a3,3,0,0,0,1.36.82,7.05,7.05,0,0,0,1.74.2H161.4a4.11,4.11,0,0,0,4.1-4.1,4.17,4.17,0,0,0-.32-1.64A4.71,4.71,0,0,0,164.3,5.43Zm-77.38,5H84.79a2.09,2.09,0,0,1-1.49-.6,2,2,0,0,1-.61-1.48,1.93,1.93,0,0,1,.17-.83,2.22,2.22,0,0,1,.46-.67A2.15,2.15,0,0,1,84,6.43a1.91,1.91,0,0,1,.81-.18,2.15,2.15,0,0,1,2.13,2.13Zm63.29,0a1.87,1.87,0,0,1-2.08-2.1,2.08,2.08,0,1,1,4.16,0A1.87,1.87,0,0,1,150.21,10.46Zm11.16,0a1.87,1.87,0,0,1-2.08-2.1,2.08,2.08,0,1,1,4.16,0A1.87,1.87,0,0,1,161.37,10.46Z"/><rect class="cls-2" x="105.27" width="2.01" height="2.07"/><rect class="cls-2" x="147.46" width="2.01" height="2.07"/><rect class="cls-2" x="151.18" width="2.01" height="2.07"/><rect class="cls-2" x="158.5" width="2.01" height="2.07"/><rect class="cls-2" x="162.22" width="2.01" height="2.07"/></g></g></svg>