<svg xmlns="http://www.w3.org/2000/svg" viewBox="0 0 110.36 135.74"><defs><style>.cls-1{fill:#cccccb;}.cls-2{fill:#fff;}</style></defs><title>Asset 50</title><g id="Layer_2" data-name="Layer 2"><g id="Layer_2-2" data-name="Layer 2"><path class="cls-1" d="M101.9,41.59c9.09,48.72-51.76,59.2-67.66,28.89C51.82,87.51,99.06,82.14,101.9,41.59Z"/><path class="cls-1" d="M49.37,15.83c40.33.3,46.58,64.56-7.14,56.55C64.58,81.93,86.4,68,93.1,51.94,100.37,34.54,84,6.18,49.37,15.83Z"/><path class="cls-1" d="M66.25,29.22c15.27,13.13,9.15,40.2-15.66,40.2C65.86,65.45,70.55,40.63,66.25,29.22Z"/><path class="cls-2" d="M49.32,26.3a32,32,0,1,1,4.57,59.25A40.63,40.63,0,1,0,33.32,66.17c.26.53.54,1.06.83,1.58A32,32,0,0,1,49.32,26.3Z"/><path class="cls-2" d="M81.37,29.05c-.26-.54-.54-1.06-.83-1.58a32,32,0,0,1-58.1,27A31.28,31.28,0,0,1,31.91,15.2c7.48-5.35,17.15-8,26.32-6.41C50.05-3.41,35.35.17,29.72,1.67,27.17,2.32,8.15,9.77,0,5.28c4.64,9,12.89,10.88,18.46,10.93a.11.11,0,0,1,0,.09.18.18,0,0,1,.07-.05l-.05,0h0A40.74,40.74,0,0,0,4.68,52.47a13,13,0,0,0,.45,2.64h0A40.63,40.63,0,1,0,81.37,29.05Z"/><path class="cls-2" d="M1.58,135.54H0v-7.62H1.58V131l2.89-3.1h2L3.42,131l3.27,4.5h-2L2.32,132.2l-.74.76Z"/><path class="cls-2" d="M27.18,132.77c0,2-1.2,2.87-3.11,2.87a3.22,3.22,0,0,1-2.4-.92,2.81,2.81,0,0,1-.59-1.85v-5.05h1.61v4.94c0,1.07.61,1.53,1.35,1.53,1.08,0,1.52-.53,1.52-1.45v-5h1.62Z"/><path class="cls-2" d="M43.14,135.54H41.56v-7.62h1.58V131l2.89-3.1h2L45,131l3.26,4.5h-2l-2.34-3.34-.74.76Z"/><path class="cls-2" d="M67.3,127.92h1.47v7.62H67.19l-3.09-5.43h0v5.43H62.61v-7.62h1.66l3,5.31h0Z"/><path class="cls-2" d="M86.47,127.72c1,0,3.64.43,3.64,4s-2.64,4-3.64,4-3.63-.43-3.63-4S85.47,127.72,86.47,127.72Zm0,6.67c.86,0,2.06-.53,2.06-2.66s-1.2-2.67-2.06-2.67-2,.54-2,2.67S85.62,134.39,86.47,134.39Z"/><path class="cls-2" d="M105.66,133.19c0,.43.22,1.24,1.6,1.24.75,0,1.58-.18,1.58-1,0-.6-.56-.76-1.37-.95l-.81-.19c-1.22-.28-2.4-.56-2.4-2.24,0-.85.45-2.34,2.91-2.34s2.94,1.53,3,2.46H108.6c0-.34-.17-1.15-1.55-1.15-.6,0-1.31.23-1.31.92s.48.72.8.79l1.84.46c1,.25,2,.68,2,2.05,0,2.29-2.32,2.49-3,2.49-2.76,0-3.23-1.6-3.23-2.55Z"/><path class="cls-2" d="M18.62,112.19a1.83,1.83,0,0,1-.57-1.27v-3.25h-2v3.21a1.79,1.79,0,0,1-.53,1.29,1.82,1.82,0,0,1-1.31.53,1.71,1.71,0,0,1-1.28-.52,1.79,1.79,0,0,1-.51-1.3v-3.21H10.37v5.16a3.92,3.92,0,0,1-.34,1.62,4.54,4.54,0,0,1-.89,1.34,4,4,0,0,1-4.55.93,4.3,4.3,0,0,1-1.34-.91,4.42,4.42,0,0,1-.91-1.34A4.28,4.28,0,0,1,2,112.83v-3.6H0v3.6a5.92,5.92,0,0,0,.49,2.4,6.14,6.14,0,0,0,1.34,2,6.43,6.43,0,0,0,2,1.34,6.1,6.1,0,0,0,2.41.48,6,6,0,0,0,2-.34,6.61,6.61,0,0,0,1.77-1,6.19,6.19,0,0,0,1.37-1.47,5.88,5.88,0,0,0,.83-1.84l.06-.23.21.11a3.77,3.77,0,0,0,3.23.13A4.07,4.07,0,0,0,17,113.6l.14-.13.13.14a3.27,3.27,0,0,0,1.19.81,3.69,3.69,0,0,0,1.45.3h3.33V107H21.15v5.68H19.89A1.75,1.75,0,0,1,18.62,112.19Z"/><path class="cls-2" d="M109.16,107.67a4.5,4.5,0,0,0-1.31-.88,4.23,4.23,0,0,0-3.22,0,4.11,4.11,0,0,0-1.31.89,4,4,0,0,0-.89,1.3,4.14,4.14,0,0,0-.32,1.62,3.83,3.83,0,0,0,.44,1.83l.14.27h-4l.14-.27a4.07,4.07,0,0,0,.41-1.83,4.14,4.14,0,0,0-.32-1.62,4.31,4.31,0,0,0-.88-1.31,4.5,4.5,0,0,0-1.31-.88,4.14,4.14,0,0,0-4.54.89A4.05,4.05,0,0,0,91,110.6a3.83,3.83,0,0,0,.44,1.83l.14.27H53.88a1.66,1.66,0,0,1-1.23-.51,1.68,1.68,0,0,1-.49-1.21v-3.67h-2v3.6a1.77,1.77,0,0,1-.51,1.27,1.64,1.64,0,0,1-1.21.52H33.75v-2.08a3.89,3.89,0,0,0-.32-1.61,4.21,4.21,0,0,0-.87-1.32,4,4,0,0,0-1.29-.9,4,4,0,0,0-4.5.92A4.26,4.26,0,0,0,25.9,109a4.09,4.09,0,0,0,0,3.17,4.28,4.28,0,0,0,.87,1.31,3.89,3.89,0,0,0,1.29.88,4,4,0,0,0,1.59.32h2.11v.19s0,.09,0,.17,0,.1,0,.14v0c0,.06,0,.13-.05.21a5.81,5.81,0,0,1-.28.84,2.47,2.47,0,0,1-.82,1,4,4,0,0,1-1.23.7l-1.38.51-.29.09-.26.1-.29.1.54,1.71.27-.08a1.07,1.07,0,0,1,.27-.08,1,1,0,0,0,.22-.06l.9-.27c.32-.1.62-.2.94-.33s.6-.27.89-.42a4.76,4.76,0,0,0,.77-.53,5.3,5.3,0,0,0,1.82-3.87v-.18H48.42a3.61,3.61,0,0,0,2.55-1l.13-.12.13.13a3,3,0,0,0,1.37.82,7,7,0,0,0,1.73.2h51.94a4.1,4.1,0,0,0,4.09-4.1A4.17,4.17,0,0,0,110,109,4.31,4.31,0,0,0,109.16,107.67Zm-77.38,5H29.65a2.05,2.05,0,0,1-1.48-.6,2,2,0,0,1-.62-1.48,2.09,2.09,0,0,1,.17-.83,2.42,2.42,0,0,1,.46-.67,2.19,2.19,0,0,1,.67-.45,1.84,1.84,0,0,1,.8-.18,2.09,2.09,0,0,1,1.5.63,2,2,0,0,1,.63,1.5Zm63.3,0a2.11,2.11,0,1,1,2.08-2.1A1.87,1.87,0,0,1,95.08,112.7Zm11.16,0a2.11,2.11,0,1,1,2.08-2.1A1.87,1.87,0,0,1,106.24,112.7Z"/><rect class="cls-2" x="50.13" y="102.24" width="2.01" height="2.07"/><rect class="cls-2" x="92.33" y="102.24" width="2.01" height="2.07"/><rect class="cls-2" x="96.04" y="102.24" width="2.01" height="2.07"/><rect class="cls-2" x="103.37" y="102.24" width="2.01" height="2.07"/><rect class="cls-2" x="107.08" y="102.24" width="2.01" height="2.07"/></g></g></svg>